<svg version="1.1" xmlns="http://www.w3.org/2000/svg" viewBox="0 0 250 250"><desc>Created with Snap</desc><defs><linearGradient x1="-2999.2960849761957" y1="-1269.76005859375" x2="9782.143380355836" y2="-1269.76005859375" gradientUnits="userSpaceOnUse" id="linearGradientSkv0evmzwj1"><stop offset="0%" stop-color="#081c4f"></stop><stop offset="100%" stop-color="#157c79"></stop></linearGradient></defs><g transform="matrix(0.0196,0,0,0.0196,58.6651,120.3032)"><rect x="-2999.2960849761957" y="-1269.76005859375" width="12781.43946533203" height="3019.776086425781" fill="url('#linearGradientSkv0evmzwj1')"></rect><g transform="matrix(75.168,0,0,75.168,-2692.0961,-961.3573)"><g display="none"><rect x="-331.365" y="-102.667" display="inline" fill="#ffffff" width="473.333" height="236" style=""></rect></g><g display="none"><g display="inline"><g><path d="M30,1.984v28H2v-28H30 M32-0.016H0v32h32V-0.016L32-0.016z" fill="#ffffff" style=""></path></g></g><g display="inline"><g><polygon fill="#ffffff" points="10.918,9.09 15.398,16.831 6.439,16.831    " style=""></polygon></g><g><polygon fill="#ffffff" points="21.082,5.59 25.561,13.331 16.602,13.331    " style=""></polygon></g><g><polygon fill="#ffffff" points="10.918,18.669 15.398,26.41 6.439,26.41    " style=""></polygon></g><g><polygon points="21.082,15.169 25.561,22.91 16.602,22.91    " fill="#ffffff" style=""></polygon></g></g></g><g display="none"><g display="inline"><path fill="#ffffff" d="M31,0.984v30H1v-30H31 M32-0.016H0v32h32V-0.016L32-0.016z" style=""></path></g><g display="inline"><path fill="#ffffff" d="M10.918,11.087l2.745,4.744h-5.49L10.918,11.087 M10.918,9.09l-4.479,7.741h8.958L10.918,9.09L10.918,9.09    z" style=""></path></g><g display="inline"><path fill="#ffffff" d="M21.082,7.587l2.745,4.744h-5.49L21.082,7.587 M21.082,5.59l-4.479,7.741h8.958L21.082,5.59L21.082,5.59z" style=""></path></g><g display="inline"><path fill="#ffffff" d="M10.918,20.666l2.745,4.744h-5.49L10.918,20.666 M10.918,18.669L6.439,26.41h8.958L10.918,18.669    L10.918,18.669z" style=""></path></g><g display="inline"><path fill="#ffffff" d="M21.082,17.166l2.745,4.744h-5.49L21.082,17.166 M21.082,15.169l-4.479,7.741h8.958L21.082,15.169    L21.082,15.169z" style=""></path></g></g><g display="none"><g display="inline"><g><rect x="0.5" y="0.484" fill="#ffffff" width="31" height="31" style=""></rect></g><g><g><path d="M31,0.984v30H1v-30H31 M32-0.016H0v32h32V-0.016L32-0.016z" fill="#ffffff" style=""></path></g></g></g><g display="inline"><g><polygon fill="#ffffff" points="7.307,16.331 10.918,10.088 14.53,16.331    " style=""></polygon></g><g><g><path d="M10.918,11.087l2.745,4.744h-5.49L10.918,11.087 M10.918,9.09l-4.479,7.741h8.958L10.918,9.09L10.918,9.09z" fill="#ffffff" style=""></path></g></g></g><g display="inline"><g><polygon fill="#ffffff" points="17.47,12.831 21.082,6.588 24.693,12.831    " style=""></polygon></g><g><path d="M21.082,7.587l2.745,4.744h-5.49L21.082,7.587 M21.082,5.59l-4.479,7.741h8.958L21.082,5.59L21.082,5.59z" fill="#ffffff" style=""></path></g></g><g display="inline"><g><polygon fill="#ffffff" points="7.307,25.91 10.918,19.667 14.53,25.91    " style=""></polygon></g><g><g><path d="M10.918,20.666l2.745,4.744h-5.49L10.918,20.666 M10.918,18.669L6.439,26.41h8.958L10.918,18.669L10.918,18.669z" fill="#ffffff" style=""></path></g></g></g><g display="inline"><g><polygon fill="#ffffff" points="17.47,22.41 21.082,16.167 24.693,22.41    " style=""></polygon></g><g><path d="M21.082,17.166l2.745,4.744h-5.49L21.082,17.166 M21.082,15.169l-4.479,7.741h8.958L21.082,15.169L21.082,15.169z" fill="#ffffff" style=""></path></g></g></g><g><g><path d="M0,31.984h32v-32H0V31.984z M2,1.984h28v28H2V1.984z" fill="#ffffff" style=""></path><polygon points="6.439,16.831 15.398,16.831 10.918,9.09   " fill="#ffffff" style=""></polygon><polygon points="16.602,13.331 25.561,13.331 21.082,5.59   " fill="#ffffff" style=""></polygon><polygon points="6.439,26.41 15.398,26.41 10.918,18.669   " fill="#ffffff" style=""></polygon><polygon points="16.602,22.91 25.561,22.91 21.082,15.169   " fill="#ffffff" style=""></polygon></g></g><desc>Created with Snap</desc><defs></defs></g><g><g transform="matrix(1.024,0,0,-1.024,0,0)"><path d="M868 640Q868 555 808 493Q748 432 633 405Q695 388 727 349Q759 311 759 261Q759 182 709 124Q660 66 565 34Q470 3 336 3Q286 3 256 6Q255 -22 232 -36Q209 -50 173 -50Q137 -50 123 -34Q110 -18 112 13Q121 153 147 306Q173 460 213 603Q220 628 241 638Q262 648 296 648Q357 648 357 614Q357 600 351 582Q325 504 299 370Q273 237 262 116Q310 112 340 112Q480 112 545 152Q611 193 611 256Q611 300 573 330Q536 360 448 363Q428 364 420 373Q412 382 412 402Q412 431 424 449Q436 467 468 468Q539 470 596 489Q654 508 687 542Q720 577 720 623Q720 681 663 714Q606 748 488 748Q381 748 281 720Q181 693 111 651Q79 632 57 632Q39 632 29 644Q20 657 20 676Q20 701 30 719Q41 737 81 760Q165 808 278 835Q391 862 509 862Q690 862 779 801Q868 740 868 640ZM998 -5Q936 -5 899 40Q862 85 862 158Q862 238 899 309Q936 381 997 424Q1059 468 1128 468Q1150 468 1157 459Q1165 451 1170 429Q1191 433 1214 433Q1263 433 1263 398Q1263 377 1248 298Q1225 183 1225 138Q1225 123 1232 114Q1240 105 1252 105Q1271 105 1298 129Q1325 154 1371 209Q1383 223 1398 223Q1411 223 1418 211Q1426 199 1426 178Q1426 138 1407 116Q1366 65 1320 30Q1274 -5 1231 -5Q1198 -5 1170 17Q1143 40 1129 79Q1077 -5 998 -5ZM1034 96Q1056 96 1076 122Q1096 148 1105 191L1142 375Q1100 374 1064 343Q1029 313 1008 263Q987 213 987 157Q987 126 999 111Q1012 96 1034 96ZM1416 -5Q1378 -5 1362 35Q1347 75 1347 163Q1347 293 1384 410Q1393 439 1413 452Q1434 466 1471 466Q1491 466 1499 461Q1507 456 1507 442Q1507 426 1492 370Q1482 330 1476 300Q1470 270 1466 226Q1499 312 1540 366Q1581 420 1620 443Q1660 466 1693 466Q1758 466 1758 401Q1758 362 1736 260Q1717 173 1717 145Q1717 105 1746 105Q1766 105 1793 129Q1821 154 1867 209Q1879 223 1894 223Q1907 223 1914 211Q1922 199 1922 178Q1922 138 1903 116Q1860 63 1810 29Q1761 -5 1698 -5Q1647 -5 1621 24Q1595 54 1595 110Q1595 138 1609 210Q1622 273 1622 297Q1622 313 1611 313Q1598 313 1574 279Q1551 246 1526 191Q1502 136 1487 75Q1476 28 1461 11Q1447 -5 1416 -5ZM2353 221Q2366 221 2373 208Q2381 196 2381 177Q2381 154 2374 141Q2367 128 2352 118Q2266 60 2226 32L2162 -11Q2124 -218 2062 -337Q2001 -455 1906 -455Q1855 -455 1823 -424Q1791 -392 1791 -341Q1791 -270 1847 -189Q1903 -107 2057 12L2063 51Q2046 24 2018 9Q1991 -5 1964 -5Q1902 -5 1865 40Q1828 85 1828 158Q1828 238 1865 309Q1902 381 1963 424Q2025 468 2094 468Q2116 468 2123 459Q2131 451 2136 429Q2155 433 2180 433Q2205 433 2215 425Q2226 418 2226 396Q2226 384 2225 377Q2221 346 2200 220Q2196 196 2191 167Q2187 139 2182 107Q2259 167 2330 213Q2343 221 2353 221ZM2000 96Q2023 96 2044 124Q2065 152 2074 204L2106 375Q2065 374 2030 343Q1995 313 1974 263Q1953 213 1953 157Q1953 126 1965 111Q1978 96 2000 96ZM1917 -358Q1942 -358 1973 -298Q2005 -238 2034 -107Q1957 -173 1923 -226Q1889 -279 1889 -319Q1889 -336 1895 -347Q1902 -358 1917 -358ZM2443 -5Q2381 -5 2344 40Q2307 85 2307 158Q2307 238 2344 309Q2381 381 2442 424Q2504 468 2573 468Q2595 468 2602 459Q2610 451 2615 429Q2636 433 2659 433Q2708 433 2708 398Q2708 377 2693 298Q2670 183 2670 138Q2670 123 2677 114Q2685 105 2697 105Q2716 105 2743 129Q2770 154 2816 209Q2828 223 2843 223Q2856 223 2863 211Q2871 199 2871 178Q2871 138 2852 116Q2811 65 2765 30Q2719 -5 2676 -5Q2643 -5 2615 17Q2588 40 2574 79Q2522 -5 2443 -5ZM2479 96Q2501 96 2521 122Q2541 148 2550 191L2587 375Q2545 374 2509 343Q2474 313 2453 263Q2432 213 2432 157Q2432 126 2444 111Q2457 96 2479 96ZM3169 223Q3182 223 3189 211Q3197 199 3197 178Q3197 138 3178 116Q3135 63 3084 29Q3034 -5 2970 -5Q2882 -5 2839 75Q2797 155 2797 282Q2797 404 2828 560Q2860 716 2921 828Q2983 940 3068 940Q3116 940 3143 895Q3171 851 3171 768Q3171 649 3105 492Q3039 335 2926 181Q2933 140 2949 122Q2965 105 2991 105Q3032 105 3063 128Q3094 152 3142 209Q3154 223 3169 223ZM3046 841Q3023 841 2994 758Q2965 675 2943 552Q2921 429 2919 316Q2990 433 3032 550Q3074 668 3074 765Q3074 841 3046 841ZM3626 307Q3639 307 3646 294Q3653 281 3653 261Q3653 213 3624 204Q3564 183 3492 180Q3473 96 3417 45Q3361 -5 3290 -5Q3230 -5 3187 24Q3145 53 3123 101Q3101 149 3101 205Q3101 281 3130 340Q3159 400 3210 433Q3261 467 3323 467Q3399 467 3445 414Q3492 362 3500 285Q3547 288 3612 305Q3620 307 3626 307ZM3298 101Q3330 101 3353 127Q3377 153 3385 202Q3354 223 3337 257Q3321 291 3321 329Q3321 345 3324 361L3319 361Q3279 361 3252 322Q3226 284 3226 214Q3226 159 3247 130Q3269 101 3298 101ZM3638 -5Q3600 -5 3584 35Q3569 75 3569 163Q3569 293 3606 410Q3615 439 3635 452Q3656 466 3693 466Q3713 466 3721 461Q3729 456 3729 442Q3729 426 3714 370Q3704 330 3698 300Q3692 270 3688 226Q3721 312 3762 366Q3803 420 3842 443Q3882 466 3915 466Q3980 466 3980 401Q3980 388 3971 338Q3963 298 3963 288Q3963 253 3988 253Q4016 253 4060 297Q4073 310 4087 310Q4100 310 4107 298Q4115 287 4115 268Q4115 231 4095 210Q4067 181 4029 160Q3992 140 3950 140Q3897 140 3869 167Q3842 194 3842 240Q3842 255 3845 270Q3847 290 3847 297Q3847 313 3836 313Q3821 313 3796 279Q3772 246 3748 191Q3724 136 3709 75Q3698 28 3683 11Q3669 -5 3638 -5ZM4468 223Q4481 223 4488 211Q4496 199 4496 178Q4496 138 4477 116Q4440 71 4372 33Q4305 -5 4228 -5Q4123 -5 4065 52Q4007 109 4007 208Q4007 277 4036 336Q4065 396 4116 431Q4168 466 4233 466Q4291 466 4326 431Q4361 397 4361 338Q4361 269 4311 219Q4262 170 4144 141Q4169 95 4239 95Q4284 95 4341 126Q4399 158 4441 209Q4453 223 4468 223ZM4216 368Q4179 368 4153 325Q4128 282 4128 221L4128 219Q4187 233 4221 261Q4255 289 4255 326Q4255 345 4244 356Q4234 368 4216 368ZM4959 -8Q4826 -8 4746 42Q4666 93 4666 197Q4666 252 4685 281Q4704 310 4741 310Q4768 310 4785 296Q4802 282 4802 260Q4802 240 4799 225Q4799 221 4797 211Q4796 201 4796 190Q4796 145 4841 123Q4887 101 4969 101Q5054 101 5102 131Q5150 162 5150 217Q5150 251 5128 275Q5106 300 5073 316Q5040 333 4980 357Q4903 387 4854 414Q4806 441 4771 487Q4737 534 4737 603Q4737 675 4775 731Q4814 787 4886 818Q4959 849 5057 849Q5130 849 5191 827Q5252 806 5288 762Q5325 718 5325 654Q5325 591 5306 559Q5287 527 5250 527Q5224 527 5206 543Q5189 559 5189 581Q5189 600 5192 616Q5195 646 5195 654Q5195 696 5154 718Q5113 740 5052 740Q4966 740 4920 708Q4875 677 4875 620Q4875 582 4898 555Q4922 528 4957 510Q4992 492 5055 467Q5131 436 5177 411Q5223 386 5255 343Q5288 300 5288 237Q5288 119 5198 55Q5109 -8 4959 -8ZM5564 -5Q5466 -5 5411 50Q5357 106 5357 197Q5357 278 5389 339Q5421 400 5472 433Q5523 466 5579 466Q5634 466 5664 433Q5695 401 5695 350Q5695 308 5676 279Q5658 250 5628 250Q5609 250 5597 259Q5586 268 5586 284Q5586 291 5588 300Q5590 309 5591 313Q5596 328 5596 341Q5596 354 5589 361Q5583 368 5571 368Q5548 368 5528 347Q5508 327 5496 292Q5484 257 5484 215Q5484 99 5585 99Q5626 99 5673 126Q5721 154 5767 209Q5779 223 5794 223Q5807 223 5814 211Q5822 199 5822 178Q5822 140 5803 116Q5756 58 5690 26Q5625 -5 5564 -5ZM6296 223Q6309 223 6316 211Q6324 199 6324 178Q6324 138 6305 116Q6259 63 6210 29Q6162 -5 6100 -5Q6049 -5 6023 24Q5997 54 5997 110Q5997 138 6011 210Q6024 273 6024 297Q6024 313 6013 313Q6000 313 5976 279Q5952 246 5928 191Q5904 136 5889 75Q5870 -5 5795 -5Q5765 -5 5755 16Q5746 38 5746 94Q5746 126 5747 145L5748 225Q5748 379 5779 546Q5811 713 5872 826Q5934 940 6020 940Q6066 940 6094 900Q6123 861 6123 798Q6123 697 6064 588Q6005 480 5872 335Q5869 283 5869 228Q5902 313 5942 366Q5983 420 6022 443Q6062 466 6095 466Q6160 466 6160 401Q6160 362 6138 260Q6119 173 6119 145Q6119 105 6148 105Q6168 105 6195 129Q6223 154 6269 209Q6281 223 6296 223ZM5999 841Q5981 841 5959 789Q5937 738 5916 650Q5896 563 5883 460Q5945 533 5985 619Q6026 705 6026 775Q6026 807 6019 824Q6012 841 5999 841ZM6753 307Q6766 307 6773 294Q6780 281 6780 261Q6780 213 6751 204Q6691 183 6619 180Q6600 96 6544 45Q6488 -5 6417 -5Q6357 -5 6314 24Q6272 53 6250 101Q6228 149 6228 205Q6228 281 6257 340Q6286 400 6337 433Q6388 467 6450 467Q6526 467 6572 414Q6619 362 6627 285Q6674 288 6739 305Q6747 307 6753 307ZM6425 101Q6457 101 6480 127Q6504 153 6512 202Q6481 223 6464 257Q6448 291 6448 329Q6448 345 6451 361L6446 361Q6406 361 6379 322Q6353 284 6353 214Q6353 159 6374 130Q6396 101 6425 101ZM7204 307Q7217 307 7224 294Q7231 281 7231 261Q7231 213 7202 204Q7142 183 7070 180Q7051 96 6995 45Q6939 -5 6868 -5Q6808 -5 6765 24Q6723 53 6701 101Q6679 149 6679 205Q6679 281 6708 340Q6737 400 6788 433Q6839 467 6901 467Q6977 467 7023 414Q7070 362 7078 285Q7125 288 7190 305Q7198 307 7204 307ZM6876 101Q6908 101 6931 127Q6955 153 6963 202Q6932 223 6915 257Q6899 291 6899 329Q6899 345 6902 361L6897 361Q6857 361 6830 322Q6804 284 6804 214Q6804 159 6825 130Q6847 101 6876 101ZM7524 223Q7537 223 7544 211Q7552 199 7552 178Q7552 138 7533 116Q7490 63 7439 29Q7389 -5 7325 -5Q7237 -5 7194 75Q7152 155 7152 282Q7152 404 7183 560Q7215 716 7276 828Q7338 940 7423 940Q7471 940 7498 895Q7526 851 7526 768Q7526 649 7460 492Q7394 335 7281 181Q7288 140 7304 122Q7320 105 7346 105Q7387 105 7418 128Q7449 152 7497 209Q7509 223 7524 223ZM7401 841Q7378 841 7349 758Q7320 675 7298 552Q7276 429 7274 316Q7345 433 7387 550Q7429 668 7429 765Q7429 841 7401 841Z" fill="#ffffff" style=""></path></g></g><g transform="matrix(0.75,0,0,0.75,-46.336,1338.752)"><g transform="matrix(0.512,0,0,-0.512,0,0)"><path d="M681 0L174 0L174 1433L631 1433Q763 1433 858 1407Q954 1381 1015 1333Q1077 1285 1106 1215Q1136 1146 1136 1059Q1136 1006 1119 957Q1103 908 1069 866Q1036 824 985 791Q935 758 867 737Q1024 706 1104 624Q1184 542 1184 408Q1184 317 1150 242Q1117 167 1052 113Q988 59 894 29Q801 0 681 0ZM677 653L368 653L368 154L678 154Q761 154 820 173Q880 192 918 226Q957 261 975 308Q993 356 993 413Q993 524 914 588Q836 653 677 653ZM368 1280L368 791L624 791Q706 791 766 809Q826 827 865 859Q905 891 924 936Q943 982 943 1036Q943 1162 867 1221Q791 1280 631 1280L368 1280ZM1841 1029Q1932 1029 2009 998Q2086 968 2142 910Q2198 853 2229 768Q2261 684 2261 576Q2261 534 2252 520Q2243 506 2218 506L1544 506Q1546 410 1570 339Q1594 268 1636 220Q1678 173 1736 149Q1794 126 1866 126Q1933 126 1981 141Q2030 157 2065 175Q2100 193 2123 208Q2147 224 2164 224Q2186 224 2198 207L2248 142Q2215 102 2169 72Q2123 43 2070 24Q2018 5 1962 -5Q1906 -14 1851 -14Q1746 -14 1657 21Q1569 57 1504 125Q1440 194 1404 295Q1368 396 1368 527Q1368 633 1400 725Q1433 817 1494 884Q1555 952 1643 990Q1731 1029 1841 1029ZM1845 898Q1716 898 1642 823Q1568 749 1550 617L2101 617Q2101 679 2084 730Q2067 782 2034 819Q2001 857 1953 877Q1906 898 1845 898ZM2795 -16Q2675 -16 2610 51Q2546 118 2546 244L2546 864L2424 864Q2408 864 2397 873Q2386 883 2386 903L2386 974L2552 995L2593 1308Q2595 1323 2606 1332Q2617 1342 2634 1342L2724 1342L2724 993L3014 993L3014 864L2724 864L2724 256Q2724 192 2755 161Q2786 130 2835 130Q2863 130 2883 137Q2904 145 2919 154Q2934 163 2944 170Q2955 178 2963 178Q2977 178 2988 161L3040 76Q2994 33 2929 8Q2864 -16 2795 -16ZM3541 -16Q3421 -16 3356 51Q3292 118 3292 244L3292 864L3170 864Q3154 864 3143 873Q3132 883 3132 903L3132 974L3298 995L3339 1308Q3341 1323 3352 1332Q3363 1342 3380 1342L3470 1342L3470 993L3760 993L3760 864L3470 864L3470 256Q3470 192 3501 161Q3532 130 3581 130Q3609 130 3629 137Q3650 145 3665 154Q3680 163 3690 170Q3701 178 3709 178Q3723 178 3734 161L3786 76Q3740 33 3675 8Q3610 -16 3541 -16ZM4381 1029Q4472 1029 4549 998Q4626 968 4682 910Q4738 853 4769 768Q4801 684 4801 576Q4801 534 4792 520Q4783 506 4758 506L4084 506Q4086 410 4110 339Q4134 268 4176 220Q4218 173 4276 149Q4334 126 4406 126Q4473 126 4521 141Q4570 157 4605 175Q4640 193 4663 208Q4687 224 4704 224Q4726 224 4738 207L4788 142Q4755 102 4709 72Q4663 43 4610 24Q4558 5 4502 -5Q4446 -14 4391 -14Q4286 -14 4197 21Q4109 57 4044 125Q3980 194 3944 295Q3908 396 3908 527Q3908 633 3940 725Q3973 817 4034 884Q4095 952 4183 990Q4271 1029 4381 1029ZM4385 898Q4256 898 4182 823Q4108 749 4090 617L4641 617Q4641 679 4624 730Q4607 782 4574 819Q4541 857 4493 877Q4446 898 4385 898ZM5206 0L5028 0L5028 1013L5130 1013Q5159 1013 5170 1002Q5181 991 5185 964L5197 806Q5249 912 5325 971Q5402 1031 5505 1031Q5547 1031 5581 1021Q5615 1012 5644 995L5621 862Q5614 837 5590 837Q5576 837 5547 846Q5518 856 5466 856Q5373 856 5310 802Q5248 748 5206 645L5206 0ZM6248 1433L7131 1433L7131 1275L6443 1275L6443 799L7000 799L7000 647L6443 647L6443 158L7131 158L7131 0L6248 0L6248 1433ZM8201 0L8095 0Q8057 0 8047 37L8031 160Q7966 81 7882 33Q7799 -14 7691 -14Q7604 -14 7533 19Q7462 53 7412 118Q7362 183 7335 280Q7308 377 7308 503Q7308 615 7338 711Q7368 808 7424 879Q7481 950 7562 990Q7643 1031 7746 1031Q7839 1031 7905 999Q7971 968 8023 911L8023 1473L8201 1473L8201 0ZM7750 130Q7837 130 7902 170Q7968 210 8023 283L8023 773Q7974 839 7915 865Q7857 892 7786 892Q7644 892 7568 791Q7492 690 7492 503Q7492 404 7509 333Q7526 263 7559 217Q7592 172 7640 151Q7688 130 7750 130ZM8476 1013L8654 1013L8654 367Q8654 252 8707 189Q8760 126 8867 126Q8945 126 9014 163Q9083 200 9141 266L9141 1013L9319 1013L9319 0L9213 0Q9175 0 9165 37L9151 146Q9085 73 9003 28Q8921 -16 8815 -16Q8732 -16 8668 11Q8605 39 8562 89Q8519 139 8497 210Q8476 281 8476 367L8476 1013ZM10350 897L10303 833Q10295 822 10287 816Q10279 810 10264 810Q10249 810 10231 822Q10214 835 10187 850Q10160 865 10121 877Q10083 890 10027 890Q9953 890 9896 863Q9839 837 9800 787Q9762 737 9742 666Q9723 595 9723 507Q9723 415 9744 343Q9765 272 9803 223Q9841 175 9895 149Q9950 124 10018 124Q10083 124 10125 139Q10167 155 10195 174Q10223 193 10241 208Q10259 224 10277 224Q10300 224 10311 207L10361 142Q10295 61 10196 23Q10097 -14 9987 -14Q9892 -14 9810 21Q9729 56 9669 122Q9609 189 9574 286Q9540 383 9540 507Q9540 620 9571 716Q9603 812 9663 881Q9724 951 9813 990Q9902 1029 10017 1029Q10123 1029 10205 994Q10287 960 10350 897ZM11290 648L11290 0L11211 0Q11185 0 11169 8Q11153 16 11148 42L11128 136Q11088 100 11050 71Q11012 43 10970 23Q10928 4 10880 -6Q10833 -16 10775 -16Q10716 -16 10664 0Q10613 17 10575 50Q10537 83 10514 133Q10492 184 10492 253Q10492 313 10525 368Q10558 424 10631 467Q10705 510 10824 537Q10943 565 11115 569L11115 648Q11115 766 11064 826Q11014 887 10915 887Q10850 887 10805 870Q10761 854 10728 833Q10696 813 10672 796Q10649 780 10626 780Q10608 780 10594 789Q10581 799 10573 813L10541 870Q10625 951 10722 991Q10819 1031 10937 1031Q11022 1031 11088 1003Q11154 975 11199 925Q11244 875 11267 804Q11290 733 11290 648ZM10828 109Q10875 109 10914 118Q10953 128 10987 145Q11022 163 11053 188Q11085 213 11115 245L11115 456Q10992 452 10906 436Q10820 421 10766 396Q10712 371 10687 337Q10663 303 10663 261Q10663 221 10676 192Q10689 163 10711 144Q10733 126 10763 117Q10793 109 10828 109ZM11867 -16Q11747 -16 11682 51Q11618 118 11618 244L11618 864L11496 864Q11480 864 11469 873Q11458 883 11458 903L11458 974L11624 995L11665 1308Q11667 1323 11678 1332Q11689 1342 11706 1342L11796 1342L11796 993L12086 993L12086 864L11796 864L11796 256Q11796 192 11827 161Q11858 130 11907 130Q11935 130 11955 137Q11976 145 11991 154Q12006 163 12016 170Q12027 178 12035 178Q12049 178 12060 161L12112 76Q12066 33 12001 8Q11936 -16 11867 -16ZM12326 1013L12504 1013L12504 0L12326 0L12326 1013ZM12544 1331Q12544 1305 12533 1282Q12523 1260 12505 1242Q12488 1225 12465 1215Q12442 1205 12416 1205Q12390 1205 12367 1215Q12345 1225 12327 1242Q12310 1260 12300 1282Q12290 1305 12290 1331Q12290 1357 12300 1380Q12310 1404 12327 1421Q12345 1439 12367 1449Q12390 1459 12416 1459Q12442 1459 12465 1449Q12488 1439 12505 1421Q12523 1404 12533 1380Q12544 1357 12544 1331ZM13228 1029Q13339 1029 13428 992Q13518 955 13580 887Q13643 819 13676 722Q13710 626 13710 507Q13710 387 13676 291Q13643 195 13580 127Q13518 59 13428 22Q13339 -14 13228 -14Q13117 -14 13027 22Q12938 59 12875 127Q12812 195 12778 291Q12744 387 12744 507Q12744 626 12778 722Q12812 819 12875 887Q12938 955 13027 992Q13117 1029 13228 1029ZM13228 125Q13378 125 13452 225Q13526 326 13526 506Q13526 687 13452 788Q13378 889 13228 889Q13152 889 13096 863Q13040 837 13002 788Q12965 739 12946 667Q12928 596 12928 506Q12928 416 12946 345Q12965 274 13002 225Q13040 177 13096 151Q13152 125 13228 125ZM14108 0L13930 0L13930 1013L14036 1013Q14074 1013 14084 976L14098 866Q14164 939 14245 984Q14327 1029 14434 1029Q14517 1029 14580 1001Q14644 974 14686 923Q14729 873 14751 802Q14773 731 14773 645L14773 0L14595 0L14595 645Q14595 760 14542 823Q14490 887 14382 887Q14303 887 14234 849Q14166 811 14108 746L14108 0ZM14990 123Q14990 146 14998 166Q15007 187 15022 202Q15038 218 15060 227Q15082 236 15108 236Q15138 236 15161 225Q15185 214 15200 194Q15216 175 15224 149Q15232 124 15232 94Q15232 49 15219 0Q15206 -48 15182 -96Q15158 -143 15122 -188Q15087 -233 15042 -271L15012 -242Q14999 -230 14999 -214Q14999 -201 15013 -187Q15023 -176 15038 -158Q15054 -139 15070 -115Q15086 -91 15099 -62Q15113 -33 15119 0L15106 0Q15080 0 15059 9Q15038 18 15022 34Q15007 51 14998 73Q14990 96 14990 123ZM17122 716Q17122 555 17071 423Q17020 291 16927 197Q16834 103 16704 51Q16574 0 16416 0L15880 0L15880 1433L16416 1433Q16574 1433 16704 1381Q16834 1330 16927 1235Q17020 1141 17071 1009Q17122 877 17122 716ZM16923 716Q16923 848 16887 952Q16851 1056 16785 1128Q16719 1200 16625 1238Q16531 1276 16416 1276L16075 1276L16075 157L16416 157Q16531 157 16625 195Q16719 233 16785 304Q16851 376 16887 480Q16923 584 16923 716ZM17759 1029Q17850 1029 17927 998Q18004 968 18060 910Q18116 853 18147 768Q18179 684 18179 576Q18179 534 18170 520Q18161 506 18136 506L17462 506Q17464 410 17488 339Q17512 268 17554 220Q17596 173 17654 149Q17712 126 17784 126Q17851 126 17899 141Q17948 157 17983 175Q18018 193 18041 208Q18065 224 18082 224Q18104 224 18116 207L18166 142Q18133 102 18087 72Q18041 43 17988 24Q17936 5 17880 -5Q17824 -14 17769 -14Q17664 -14 17575 21Q17487 57 17422 125Q17358 194 17322 295Q17286 396 17286 527Q17286 633 17318 725Q17351 817 17412 884Q17473 952 17561 990Q17649 1029 17759 1029ZM17763 898Q17634 898 17560 823Q17486 749 17468 617L18019 617Q18019 679 18002 730Q17985 782 17952 819Q17919 857 17871 877Q17824 898 17763 898ZM18426 1473L18604 1473L18604 0L18426 0L18426 1473ZM18938 1013L19116 1013L19116 0L18938 0L18938 1013ZM19156 1331Q19156 1305 19145 1282Q19135 1260 19117 1242Q19100 1225 19077 1215Q19054 1205 19028 1205Q19002 1205 18979 1215Q18957 1225 18939 1242Q18922 1260 18912 1282Q18902 1305 18902 1331Q18902 1357 18912 1380Q18922 1404 18939 1421Q18957 1439 18979 1449Q19002 1459 19028 1459Q19054 1459 19077 1449Q19100 1439 19117 1421Q19135 1404 19145 1380Q19156 1357 19156 1331ZM19715 0L19302 1013L19448 1013Q19469 1013 19483 1002Q19497 991 19503 976L19760 324Q19774 288 19782 252Q19790 216 19797 181Q19805 216 19814 252Q19823 288 19837 324L20097 976Q20103 992 20116 1002Q20130 1013 20150 1013L20289 1013L19876 0L19715 0ZM20855 1029Q20946 1029 21023 998Q21100 968 21156 910Q21212 853 21243 768Q21275 684 21275 576Q21275 534 21266 520Q21257 506 21232 506L20558 506Q20560 410 20584 339Q20608 268 20650 220Q20692 173 20750 149Q20808 126 20880 126Q20947 126 20995 141Q21044 157 21079 175Q21114 193 21137 208Q21161 224 21178 224Q21200 224 21212 207L21262 142Q21229 102 21183 72Q21137 43 21084 24Q21032 5 20976 -5Q20920 -14 20865 -14Q20760 -14 20671 21Q20583 57 20518 125Q20454 194 20418 295Q20382 396 20382 527Q20382 633 20414 725Q20447 817 20508 884Q20569 952 20657 990Q20745 1029 20855 1029ZM20859 898Q20730 898 20656 823Q20582 749 20564 617L21115 617Q21115 679 21098 730Q21081 782 21048 819Q21015 857 20967 877Q20920 898 20859 898ZM21680 0L21502 0L21502 1013L21604 1013Q21633 1013 21644 1002Q21655 991 21659 964L21671 806Q21723 912 21799 971Q21876 1031 21979 1031Q22021 1031 22055 1021Q22089 1012 22118 995L22095 862Q22088 837 22064 837Q22050 837 22021 846Q21992 856 21940 856Q21847 856 21784 802Q21722 748 21680 645L21680 0ZM22709 1029Q22800 1029 22877 998Q22954 968 23010 910Q23066 853 23097 768Q23129 684 23129 576Q23129 534 23120 520Q23111 506 23086 506L22412 506Q22414 410 22438 339Q22462 268 22504 220Q22546 173 22604 149Q22662 126 22734 126Q22801 126 22849 141Q22898 157 22933 175Q22968 193 22991 208Q23015 224 23032 224Q23054 224 23066 207L23116 142Q23083 102 23037 72Q22991 43 22938 24Q22886 5 22830 -5Q22774 -14 22719 -14Q22614 -14 22525 21Q22437 57 22372 125Q22308 194 22272 295Q22236 396 22236 527Q22236 633 22268 725Q22301 817 22362 884Q22423 952 22511 990Q22599 1029 22709 1029ZM22713 898Q22584 898 22510 823Q22436 749 22418 617L22969 617Q22969 679 22952 730Q22935 782 22902 819Q22869 857 22821 877Q22774 898 22713 898ZM24175 0L24069 0Q24031 0 24021 37L24005 160Q23940 81 23856 33Q23773 -14 23665 -14Q23578 -14 23507 19Q23436 53 23386 118Q23336 183 23309 280Q23282 377 23282 503Q23282 615 23312 711Q23342 808 23398 879Q23455 950 23536 990Q23617 1031 23720 1031Q23813 1031 23879 999Q23945 968 23997 911L23997 1473L24175 1473L24175 0ZM23724 130Q23811 130 23876 170Q23942 210 23997 283L23997 773Q23948 839 23889 865Q23831 892 23760 892Q23618 892 23542 791Q23466 690 23466 503Q23466 404 23483 333Q23500 263 23533 217Q23566 172 23614 151Q23662 130 23724 130ZM24589 1433L24758 1433L24758 861Q24758 816 24756 773Q24755 730 24752 686Q24749 643 24744 597Q24740 552 24734 500L24613 500Q24607 552 24602 597Q24598 643 24595 686Q24592 730 24590 773Q24589 816 24589 861L24589 1433ZM24546 110Q24546 136 24555 159Q24565 182 24581 199Q24598 216 24621 226Q24644 236 24670 236Q24696 236 24719 226Q24742 216 24759 199Q24776 182 24785 159Q24795 136 24795 110Q24795 83 24785 60Q24776 38 24759 21Q24742 4 24719 -6Q24696 -15 24670 -15Q24644 -15 24621 -6Q24598 4 24581 21Q24565 38 24555 60Q24546 83 24546 110Z" fill="#ffffff" style=""></path></g></g></g></svg>