<svg version="1.1" xmlns="http://www.w3.org/2000/svg" viewBox="0 0 250 250"><desc>Created with Snap</desc><defs></defs><g transform="matrix(0.0192,0,0,0.0192,50.3305,120.5098)"><rect x="-2614.958392897209" y="-1080.3200561523438" width="12988.94639300402" height="2627.2201171875004" fill="#7e6b8f" style=""></rect><g transform="matrix(26.4925,0,0,26.4925,-2639.2126,-1104.6073)"><g><path d="M74.265,60.41c0.964,2.929,1.401,5.966,1.261,9.015c2.584-0.989,5.013-2.49,7.095-4.572c0.244-0.244,0.41-0.527,0.637-0.78   c0.018-0.341,0.105-0.659,0.105-1.004c0-2.924-0.646-5.691-1.764-8.203C79.522,57.139,77.045,59.022,74.265,60.41z" fill="#ffffff" style=""></path><path d="M54.863,81.605c2.509,1.112,5.276,1.759,8.2,1.759c0.349,0,0.664-0.085,1.004-0.103c0.253-0.227,0.541-0.393,0.781-0.637   c2.08-2.085,3.585-4.516,4.572-7.104c-3.049,0.14-6.086-0.292-9.01-1.257C59.022,77.049,57.137,79.528,54.863,81.605z" fill="#ffffff" style=""></path><path d="M40.588,74.265c-2.925,0.965-5.965,1.396-9.013,1.257c0.988,2.588,2.49,5.023,4.573,7.104   c0.242,0.244,0.528,0.41,0.779,0.637c0.339,0.018,0.661,0.103,1.003,0.103c2.926,0,5.691-0.646,8.202-1.759   C43.861,79.528,41.976,77.049,40.588,74.265z" fill="#ffffff" style=""></path><path d="M26.731,60.41c-2.781-1.388-5.26-3.271-7.337-5.545c-1.112,2.512-1.758,5.279-1.758,8.203c0,0.345,0.085,0.663,0.1,1.004   c0.229,0.253,0.395,0.536,0.639,0.78c2.082,2.082,4.515,3.583,7.098,4.572C25.333,66.376,25.767,63.339,26.731,60.41z" fill="#ffffff" style=""></path><path d="M26.731,40.592c-0.964-2.929-1.398-5.966-1.259-9.016c-2.583,0.989-5.014,2.491-7.098,4.572   c-0.244,0.245-0.41,0.528-0.639,0.781c-0.015,0.341-0.1,0.659-0.1,1.004c0,2.924,0.646,5.69,1.76,8.205   C21.471,43.863,23.95,41.979,26.731,40.592z" fill="#ffffff" style=""></path><path d="M46.132,19.397c-2.511-1.114-5.275-1.76-8.202-1.76c-0.342,0-0.664,0.084-1.003,0.102   c-0.251,0.228-0.537,0.393-0.779,0.638c-2.083,2.08-3.585,4.515-4.573,7.103c3.048-0.14,6.088,0.293,9.013,1.257   C41.976,23.952,43.861,21.475,46.132,19.397z" fill="#ffffff" style=""></path><path d="M60.41,26.736c2.924-0.964,5.961-1.396,9.01-1.257c-0.99-2.588-2.492-5.017-4.572-7.103   c-0.24-0.245-0.528-0.41-0.781-0.638c-0.34-0.018-0.659-0.102-1.004-0.102c-2.924,0-5.691,0.646-8.2,1.76   C57.137,21.475,59.022,23.952,60.41,26.736z" fill="#ffffff" style=""></path><path d="M82.621,36.148c-2.082-2.081-4.511-3.583-7.095-4.572c0.14,3.05-0.297,6.087-1.261,9.016   c2.78,1.388,5.257,3.271,7.334,5.547c1.117-2.515,1.764-5.281,1.764-8.205c0-0.345-0.088-0.663-0.105-1.004   C83.031,36.677,82.865,36.394,82.621,36.148z" fill="#ffffff" style=""></path><path d="M58.228,63.068c0-0.166-0.048-0.319-0.052-0.484c-1.061-0.21-2.09-0.498-3.099-0.834c-0.462,0.921-0.89,1.851-1.469,2.719   c0.113,0.122,0.19,0.267,0.309,0.384c1.143,1.14,2.404,2.069,3.718,2.881C57.993,66.228,58.228,64.683,58.228,63.068z" fill="#ffffff" style=""></path><path d="M43.362,67.733c1.313-0.812,2.574-1.741,3.715-2.881c0.12-0.117,0.199-0.262,0.312-0.384   c-0.581-0.868-1.008-1.798-1.471-2.719c-1.008,0.336-2.038,0.624-3.1,0.834c-0.002,0.165-0.048,0.318-0.048,0.484   C42.771,64.683,43.006,66.228,43.362,67.733z" fill="#ffffff" style=""></path><path d="M36.148,53.922c-1.139,1.14-2.068,2.4-2.88,3.717c1.503,0.355,3.051,0.59,4.663,0.59c0.166,0,0.318-0.044,0.484-0.048   c0.209-1.06,0.495-2.094,0.833-3.102c-0.918-0.463-1.848-0.886-2.716-1.471C36.411,53.726,36.269,53.805,36.148,53.922z" fill="#ffffff" style=""></path><path d="M38.415,42.821c-0.166-0.006-0.319-0.05-0.484-0.05c-1.612,0-3.159,0.236-4.663,0.591c0.812,1.318,1.739,2.578,2.88,3.717   c0.12,0.118,0.262,0.196,0.384,0.314c0.868-0.583,1.797-1.008,2.716-1.471C38.91,44.916,38.625,43.881,38.415,42.821z" fill="#ffffff" style=""></path><path d="M42.771,37.934c0,0.166,0.046,0.318,0.048,0.484c1.062,0.21,2.092,0.498,3.1,0.834c0.462-0.921,0.89-1.851,1.471-2.719   c-0.113-0.123-0.192-0.267-0.312-0.385c-1.141-1.139-2.402-2.066-3.715-2.879C43.006,34.774,42.771,36.319,42.771,37.934z" fill="#ffffff" style=""></path><path d="M57.635,33.27c-1.314,0.812-2.575,1.74-3.718,2.879c-0.118,0.118-0.195,0.262-0.309,0.385   c0.579,0.868,1.007,1.798,1.469,2.719c1.008-0.336,2.038-0.624,3.099-0.834c0.004-0.166,0.052-0.318,0.052-0.484   C58.228,36.319,57.993,34.774,57.635,33.27z" fill="#ffffff" style=""></path><path d="M63.063,42.771c-0.166,0-0.314,0.044-0.48,0.05c-0.209,1.06-0.498,2.095-0.838,3.102c0.921,0.463,1.851,0.888,2.719,1.471   c0.122-0.118,0.266-0.196,0.384-0.314c1.139-1.139,2.067-2.398,2.883-3.717C66.226,43.008,64.678,42.771,63.063,42.771z" fill="#ffffff" style=""></path><path d="M48.074,49.493c-0.035,0.676-0.035,1.339,0,2.012c0.452,0.502,0.921,0.969,1.42,1.423c0.671,0.034,1.335,0.034,2.007,0   c0.5-0.454,0.972-0.926,1.423-1.423c0.035-0.673,0.033-1.336,0-2.008c-0.451-0.502-0.921-0.969-1.42-1.423   c-0.673-0.035-1.34-0.035-2.012,0C48.995,48.528,48.524,48.995,48.074,49.493z" fill="#ffffff" style=""></path><path d="M64.464,53.608c-0.868,0.585-1.798,1.008-2.719,1.471c0.34,1.008,0.628,2.042,0.838,3.102   c0.166,0.004,0.314,0.048,0.48,0.048c1.615,0,3.163-0.234,4.668-0.59c-0.816-1.316-1.745-2.577-2.883-3.717   C64.73,53.805,64.586,53.726,64.464,53.608z" fill="#ffffff" style=""></path><path d="M72.271,55.926c2.583-1.327,4.827-3.173,6.615-5.425c-1.788-2.252-4.031-4.098-6.615-5.425   c-1.091,1.929-2.357,3.784-3.998,5.425C69.914,52.142,71.179,53.996,72.271,55.926z" fill="#ffffff" style=""></path><path d="M62.138,31.245c0.585,2.133,0.925,4.367,0.925,6.688c2.322,0,4.555,0.341,6.689,0.93c0.868-2.745,1.143-5.603,0.82-8.436   C67.74,30.104,64.879,30.375,62.138,31.245z" fill="#ffffff" style=""></path><path d="M50.498,22.11c-2.253,1.794-4.099,4.033-5.424,6.616c1.927,1.096,3.782,2.361,5.424,4.002   c1.644-1.641,3.498-2.906,5.426-4.002C54.597,26.144,52.752,23.904,50.498,22.11z" fill="#ffffff" style=""></path><path d="M37.931,37.934c0-2.321,0.34-4.556,0.927-6.688c-2.74-0.87-5.601-1.141-8.432-0.817c-0.323,2.833-0.05,5.69,0.817,8.436   C33.377,38.274,35.612,37.934,37.931,37.934z" fill="#ffffff" style=""></path><path d="M22.108,50.501c1.794,2.252,4.034,4.098,6.618,5.425c1.091-1.93,2.356-3.784,3.999-5.425   c-1.643-1.641-2.908-3.496-4.001-5.425C26.143,46.403,23.902,48.249,22.108,50.501z" fill="#ffffff" style=""></path><path d="M38.858,69.757c-0.587-2.133-0.927-4.367-0.927-6.688c-2.319,0-4.553-0.341-6.688-0.93   c-0.868,2.745-1.14,5.604-0.817,8.436C33.257,70.896,36.118,70.627,38.858,69.757z" fill="#ffffff" style=""></path><path d="M50.498,78.891c2.255-1.793,4.1-4.032,5.426-6.616c-1.929-1.095-3.782-2.36-5.426-4c-1.642,1.64-3.497,2.905-5.424,4   C46.401,74.858,48.245,77.098,50.498,78.891z" fill="#ffffff" style=""></path><path d="M63.063,63.068c0,2.321-0.34,4.556-0.925,6.688c2.741,0.87,5.602,1.139,8.435,0.817c0.323-2.832,0.048-5.695-0.82-8.436   C67.618,62.728,65.385,63.068,63.063,63.068z" fill="#ffffff" style=""></path><path d="M87.425,44.026c-0.571,2.304-1.457,4.476-2.614,6.475c1.157,1.999,2.043,4.177,2.614,6.475   C88.844,52.771,88.844,48.231,87.425,44.026z" fill="#ffffff" style=""></path><path d="M81.233,29.05c-1.981-4.041-5.244-7.301-9.286-9.282c1.249,2.063,2.147,4.268,2.745,6.541   C76.966,26.907,79.165,27.802,81.233,29.05z" fill="#ffffff" style=""></path><path d="M56.971,13.576c-4.204-1.418-8.742-1.418-12.947,0c2.3,0.571,4.473,1.453,6.473,2.614   C52.5,15.029,54.671,14.147,56.971,13.576z" fill="#ffffff" style=""></path><path d="M29.047,19.768c-4.042,1.981-7.301,5.241-9.284,9.282c2.066-1.248,4.268-2.143,6.541-2.741   C26.904,24.035,27.798,21.831,29.047,19.768z" fill="#ffffff" style=""></path><path d="M13.571,56.973c0.574-2.3,1.458-4.473,2.616-6.472c-1.159-1.999-2.04-4.171-2.616-6.472   C12.158,48.231,12.158,52.771,13.571,56.973z" fill="#ffffff" style=""></path><path d="M19.765,71.952c1.981,4.041,5.24,7.297,9.279,9.282c-1.248-2.068-2.141-4.269-2.741-6.542   C24.031,74.095,21.829,73.2,19.765,71.952z" fill="#ffffff" style=""></path><path d="M44.024,87.426c4.205,1.418,8.746,1.418,12.947,0c-2.3-0.572-4.472-1.453-6.474-2.614   C48.498,85.973,46.324,86.854,44.024,87.426z" fill="#ffffff" style=""></path><path d="M71.952,81.234c4.037-1.985,7.3-5.241,9.281-9.282c-2.068,1.248-4.267,2.143-6.541,2.74   C74.095,76.966,73.2,79.166,71.952,81.234z" fill="#ffffff" style=""></path></g><desc>Created with Snap</desc><defs></defs></g><g><g transform="matrix(1.024,0,0,-1.024,0,0)"><path d="M387 -17Q347 -17 317 -1Q288 16 288 57Q288 83 301 115Q319 95 334 87Q350 79 368 79Q418 79 442 135Q467 191 467 259Q467 386 372 386Q345 386 326 383L244 0L100 0L236 636L384 656L337 434L343 434Q381 434 414 458Q447 483 467 520Q487 558 487 596Q487 642 454 673Q422 704 355 704Q294 704 236 676Q178 649 141 594Q105 539 105 461Q105 424 112 409Q119 395 119 393Q66 393 39 414Q12 436 12 485Q12 553 63 614Q114 675 198 712Q282 750 375 750Q445 750 493 728Q541 706 564 670Q588 634 588 591Q588 545 562 502Q536 459 488 432Q548 421 577 376Q606 332 606 271Q606 214 584 147Q563 80 513 31Q464 -17 387 -17ZM761 -6Q704 -6 666 33Q628 72 628 155Q628 229 657 310Q687 392 745 448Q804 505 885 505Q926 505 946 491Q966 477 966 454L966 447L977 500L1121 500L1049 160Q1045 145 1045 128Q1045 85 1086 85Q1114 85 1134 111Q1155 137 1167 179L1209 179Q1172 71 1117 32Q1063 -6 1008 -6Q966 -6 940 17Q915 41 910 86Q881 45 845 19Q810 -6 761 -6ZM826 91Q851 91 875 114Q900 138 909 179L957 405Q957 418 947 430Q937 443 916 443Q876 443 844 396Q812 350 794 284Q776 219 776 169Q776 119 790 105Q805 91 826 91ZM1528 -6Q1467 -6 1438 26Q1410 59 1410 107Q1410 128 1415 154Q1420 181 1425 206Q1431 231 1433 238Q1441 273 1448 307Q1455 341 1455 362Q1455 413 1419 413Q1393 413 1373 387Q1353 362 1341 321L1273 0L1129 0L1235 500L1379 500L1368 448Q1418 504 1485 504Q1536 504 1566 476Q1596 448 1596 391Q1596 362 1589 326Q1582 291 1569 240Q1561 209 1554 179Q1548 150 1548 133Q1548 113 1557 102Q1566 91 1588 91Q1618 91 1636 112Q1654 134 1672 179L1714 179Q1677 69 1628 31Q1580 -6 1528 -6ZM1849 -250Q1801 -250 1769 -225Q1737 -200 1737 -153Q1737 -96 1783 -62Q1829 -27 1900 -4L1912 49Q1861 -6 1792 -6Q1735 -6 1697 33Q1659 72 1659 155Q1659 229 1688 310Q1718 392 1776 448Q1835 505 1916 505Q1957 505 1977 491Q1997 477 1997 454L1997 448L2008 500L2152 500L2053 36Q2101 52 2130 84Q2159 116 2179 179L2221 179Q2194 90 2148 48Q2102 7 2044 -8L2029 -80Q2009 -177 1960 -214Q1911 -250 1849 -250ZM1857 91Q1880 91 1904 112Q1928 133 1937 169L1988 406Q1988 418 1978 430Q1968 443 1947 443Q1907 443 1875 396Q1843 350 1825 284Q1807 219 1807 169Q1807 119 1821 105Q1836 91 1857 91ZM1826 -172Q1843 -172 1859 -149Q1875 -126 1884 -83L1890 -54Q1792 -90 1792 -139Q1792 -152 1801 -162Q1810 -172 1826 -172ZM2299 -6Q2242 -6 2204 33Q2166 72 2166 155Q2166 229 2195 310Q2225 392 2283 448Q2342 505 2423 505Q2464 505 2484 491Q2504 477 2504 454L2504 447L2515 500L2659 500L2587 160Q2583 145 2583 128Q2583 85 2624 85Q2652 85 2672 111Q2693 137 2705 179L2747 179Q2710 71 2655 32Q2601 -6 2546 -6Q2504 -6 2478 17Q2453 41 2448 86Q2419 45 2383 19Q2348 -6 2299 -6ZM2364 91Q2389 91 2413 114Q2438 138 2447 179L2495 405Q2495 418 2485 430Q2475 443 2454 443Q2414 443 2382 396Q2350 350 2332 284Q2314 219 2314 169Q2314 119 2328 105Q2343 91 2364 91ZM2804 -6Q2756 -6 2726 24Q2697 54 2697 114Q2697 139 2705 179L2812 680L2960 700L2845 160Q2841 145 2841 128Q2841 108 2850 99Q2860 91 2882 91Q2911 91 2936 115Q2961 140 2972 179L3014 179Q2977 71 2919 32Q2861 -6 2804 -6ZM3118 -4Q3044 -4 3001 34Q2958 72 2958 154Q2958 222 2986 305Q3014 388 3076 448Q3138 509 3232 509Q3360 509 3360 349L3360 348Q3363 347 3371 347Q3404 347 3447 364Q3490 382 3525 407L3534 380Q3505 349 3458 327Q3412 306 3357 297Q3349 206 3316 138Q3283 70 3231 33Q3179 -4 3118 -4ZM3158 86Q3182 86 3206 113Q3230 141 3248 188Q3266 236 3274 294Q3247 300 3247 336Q3247 377 3278 390Q3276 423 3268 435Q3260 448 3240 448Q3207 448 3176 400Q3145 352 3126 285Q3107 218 3107 167Q3107 119 3118 102Q3129 86 3158 86ZM3373 0L3479 500L3623 500L3610 438Q3644 468 3671 484Q3699 500 3731 500Q3763 500 3781 478Q3800 456 3800 425Q3800 396 3781 374Q3762 352 3728 352Q3706 352 3698 362Q3691 373 3687 393Q3684 406 3681 412Q3678 418 3670 418Q3649 418 3634 409Q3620 401 3597 380L3517 0L3373 0ZM3930 -6Q3856 -6 3815 32Q3774 71 3774 153Q3774 222 3801 305Q3828 388 3889 448Q3950 509 4044 509Q4154 509 4154 413Q4154 357 4122 310Q4090 263 4037 234Q3984 206 3924 202Q3922 172 3922 162Q3922 113 3939 95Q3956 78 3994 78Q4048 78 4086 103Q4125 128 4171 179L4205 179Q4094 -6 3930 -6ZM3932 250Q3969 252 4002 276Q4036 300 4056 337Q4077 374 4077 415Q4077 456 4052 456Q4016 456 3981 393Q3947 330 3932 250ZM4633 -18Q4570 -18 4522 4Q4474 26 4448 65Q4422 105 4422 157Q4422 201 4440 237Q4459 273 4490 294Q4522 315 4560 315Q4595 315 4619 297Q4643 280 4649 249Q4597 249 4566 221Q4535 194 4535 147Q4535 104 4561 78Q4587 52 4630 52Q4683 52 4717 87Q4752 123 4752 177Q4752 224 4726 266Q4700 308 4648 368Q4594 430 4566 474Q4539 519 4539 572Q4539 624 4568 665Q4597 707 4648 731Q4699 755 4763 755Q4844 755 4892 717Q4941 679 4941 615Q4941 573 4920 547Q4899 521 4865 521Q4827 521 4804 552Q4823 566 4834 589Q4845 612 4845 637Q4845 669 4826 688Q4807 707 4774 707Q4734 707 4708 678Q4683 650 4683 606Q4683 566 4706 531Q4729 497 4778 443Q4818 400 4842 369Q4867 338 4884 297Q4902 257 4902 210Q4902 146 4866 94Q4831 42 4769 12Q4708 -18 4633 -18ZM5101 -6Q5027 -6 4986 32Q4945 71 4945 153Q4945 222 4972 305Q5000 388 5060 448Q5121 509 5214 509Q5274 509 5299 483Q5325 457 5325 417Q5325 382 5310 363Q5295 344 5272 344Q5255 344 5237 356Q5249 389 5249 415Q5249 434 5242 445Q5235 456 5221 456Q5191 456 5161 407Q5131 358 5112 288Q5093 218 5093 162Q5093 113 5110 95Q5127 78 5165 78Q5219 78 5257 103Q5296 128 5342 179L5376 179Q5265 -6 5101 -6ZM5703 -6Q5642 -6 5613 26Q5585 59 5585 107Q5585 128 5590 154Q5595 181 5600 206Q5606 231 5608 238Q5616 273 5623 307Q5630 341 5630 362Q5630 413 5594 413Q5568 413 5548 387Q5528 362 5516 321L5448 0L5304 0L5449 680L5597 700L5543 448Q5593 504 5660 504Q5711 504 5741 476Q5771 448 5771 391Q5771 362 5764 326Q5757 291 5744 240Q5736 209 5729 179Q5723 150 5723 133Q5723 113 5732 102Q5741 91 5763 91Q5793 91 5811 112Q5829 134 5847 179L5889 179Q5852 69 5803 31Q5755 -6 5703 -6ZM5993 -4Q5919 -4 5876 34Q5833 72 5833 154Q5833 222 5861 305Q5889 388 5951 448Q6013 509 6107 509Q6235 509 6235 349L6235 348Q6238 347 6246 347Q6279 347 6322 364Q6365 382 6400 407L6409 380Q6380 349 6333 327Q6287 306 6232 297Q6224 206 6191 138Q6158 70 6106 33Q6054 -4 5993 -4ZM6033 86Q6057 86 6081 113Q6105 141 6123 188Q6141 236 6149 294Q6122 300 6122 336Q6122 377 6153 390Q6151 423 6143 435Q6135 448 6115 448Q6082 448 6051 400Q6020 352 6001 285Q5982 218 5982 167Q5982 119 5993 102Q6004 86 6033 86ZM6432 -4Q6358 -4 6315 34Q6272 72 6272 154Q6272 222 6300 305Q6328 388 6390 448Q6452 509 6546 509Q6674 509 6674 349L6674 348Q6677 347 6685 347Q6718 347 6761 364Q6804 382 6839 407L6848 380Q6819 349 6772 327Q6726 306 6671 297Q6663 206 6630 138Q6597 70 6545 33Q6493 -4 6432 -4ZM6472 86Q6496 86 6520 113Q6544 141 6562 188Q6580 236 6588 294Q6561 300 6561 336Q6561 377 6592 390Q6590 423 6582 435Q6574 448 6554 448Q6521 448 6490 400Q6459 352 6440 285Q6421 218 6421 167Q6421 119 6432 102Q6443 86 6472 86ZM6824 -6Q6776 -6 6746 24Q6717 54 6717 114Q6717 139 6725 179L6832 680L6980 700L6865 160Q6861 145 6861 128Q6861 108 6870 99Q6880 91 6902 91Q6931 91 6956 115Q6981 140 6992 179L7034 179Q6997 71 6939 32Q6881 -6 6824 -6Z" fill="#ffffff" style=""></path></g></g><g transform="matrix(0.75,0,0,0.75,-46.962,1133.5751)"><g transform="matrix(0.5,0,0,-0.5,0,0)"><path d="M701 0L158 0L158 1465L615 1465Q906 1465 1049 1380Q1192 1295 1192 1097Q1192 1065 1188 1034Q1184 1003 1170 963Q1156 924 1133 892Q1110 860 1069 829Q1028 799 973 782Q1109 749 1181 655Q1253 562 1253 425Q1253 218 1106 109Q960 0 701 0ZM429 671L429 196L664 196Q976 196 976 440Q976 563 898 617Q820 671 657 671L429 671ZM429 1266L429 860L661 860Q930 860 930 1065Q930 1180 852 1223Q775 1266 606 1266L429 1266ZM1974 -21Q1709 -21 1561 131Q1414 284 1414 553Q1414 815 1553 970Q1692 1125 1932 1126Q2159 1126 2284 984Q2410 842 2410 607Q2410 590 2409 552Q2409 514 2409 496L1678 496Q1682 342 1762 257Q1843 173 1984 173Q2164 173 2330 267L2367 81Q2202 -21 1974 -21ZM1683 661L2163 661Q2163 795 2102 867Q2041 939 1933 939Q1832 939 1762 869Q1693 799 1683 661ZM3062 -15Q2950 -15 2875 11Q2801 38 2759 95Q2717 152 2699 229Q2682 307 2682 421L2682 940L2502 940L2512 1082L2700 1099L2784 1397L2944 1398L2944 1099L3217 1099L3217 940L2944 940L2944 416Q2944 291 2980 238Q3016 185 3113 185Q3170 185 3235 195L3242 7Q3240 7 3217 2Q3195 -2 3174 -6Q3154 -9 3122 -12Q3090 -15 3062 -15ZM3865 -15Q3753 -15 3678 11Q3604 38 3562 95Q3520 152 3502 229Q3485 307 3485 421L3485 940L3305 940L3315 1082L3503 1099L3587 1397L3747 1398L3747 1099L4020 1099L4020 940L3747 940L3747 416Q3747 291 3783 238Q3819 185 3916 185Q3973 185 4038 195L4045 7Q4043 7 4020 2Q3998 -2 3977 -6Q3957 -9 3925 -12Q3893 -15 3865 -15ZM4737 -21Q4472 -21 4324 131Q4177 284 4177 553Q4177 815 4316 970Q4455 1125 4695 1126Q4922 1126 5047 984Q5173 842 5173 607Q5173 590 5172 552Q5172 514 5172 496L4441 496Q4445 342 4525 257Q4606 173 4747 173Q4927 173 5093 267L5130 81Q4965 -21 4737 -21ZM4446 661L4926 661Q4926 795 4865 867Q4804 939 4696 939Q4595 939 4525 869Q4456 799 4446 661ZM5649 0L5387 0L5387 1099L5607 1099L5641 931Q5749 1104 5954 1104Q5997 1104 6024 1100L6020 881Q5980 887 5937 887Q5792 887 5720 810Q5649 733 5649 596L5649 0ZM7640 0L6750 0L6750 1465L7638 1465L7627 1250L7021 1250L7021 872L7597 872L7597 657L7021 657L7021 216L7649 216L7640 0ZM8286 -21Q8071 -21 7948 137Q7825 295 7825 559Q7825 815 7947 970Q8070 1126 8285 1126Q8519 1126 8616 960Q8606 1058 8606 1149L8606 1504L8868 1521L8868 0L8641 0L8612 150Q8595 123 8580 103Q8566 84 8538 58Q8510 33 8477 17Q8445 2 8395 -10Q8346 -21 8286 -21ZM8348 178Q8612 178 8616 537Q8616 740 8548 833Q8480 926 8345 926Q8227 926 8156 831Q8086 737 8086 553Q8086 370 8156 274Q8227 178 8348 178ZM9929 86Q9798 -21 9584 -21Q9370 -21 9239 86Q9109 193 9109 400L9109 1099L9372 1099L9372 410Q9372 287 9423 232Q9475 177 9587 177Q9697 177 9747 231Q9798 286 9798 410L9798 1099L10060 1099L10060 400Q10060 194 9929 86ZM10780 -21Q10528 -21 10387 129Q10247 279 10247 558Q10247 828 10394 977Q10542 1126 10783 1126Q10976 1126 11109 1043L11047 856Q10911 927 10794 927Q10661 927 10584 832Q10508 737 10508 555Q10508 371 10583 275Q10659 179 10797 179Q10941 179 11074 264L11099 65Q11030 19 10956 -1Q10882 -21 10780 -21ZM11597 -21Q11444 -21 11349 63Q11255 148 11255 307Q11255 478 11367 560Q11479 643 11705 665Q11736 669 11772 673Q11808 677 11853 681Q11898 685 11924 688L11924 746Q11924 846 11878 891Q11832 937 11738 937Q11604 937 11407 862Q11406 865 11374 953Q11342 1041 11341 1043Q11535 1126 11761 1126Q11983 1126 12084 1029Q12185 933 12185 717L12185 0L11991 0Q11990 4 11969 67Q11948 130 11948 134Q11866 54 11787 16Q11709 -21 11597 -21ZM11668 165Q11759 165 11826 208Q11894 252 11923 314L11923 526Q11920 526 11870 522Q11821 518 11817 518Q11658 504 11584 458Q11510 412 11510 310Q11510 240 11551 202Q11592 165 11668 165ZM12888 -15Q12776 -15 12701 11Q12627 38 12585 95Q12543 152 12525 229Q12508 307 12508 421L12508 940L12328 940L12338 1082L12526 1099L12610 1397L12770 1398L12770 1099L13043 1099L13043 940L12770 940L12770 416Q12770 291 12806 238Q12842 185 12939 185Q12996 185 13061 195L13068 7Q13066 7 13043 2Q13021 -2 13000 -6Q12980 -9 12948 -12Q12916 -15 12888 -15ZM13520 0L13258 0L13258 1099L13520 1099L13520 0ZM13521 1259L13258 1259L13258 1483L13521 1483L13521 1259ZM14272 178Q14405 178 14472 275Q14539 372 14539 553Q14539 736 14472 832Q14405 928 14270 928Q14137 928 14069 831Q14002 735 14002 552Q14002 372 14070 275Q14138 178 14272 178ZM14265 -21Q14021 -21 13881 137Q13741 295 13741 553Q13741 819 13881 972Q14021 1126 14276 1126Q14522 1126 14661 969Q14801 813 14801 553Q14801 290 14660 134Q14519 -21 14265 -21ZM15277 0L15015 0L15015 1099L15226 1099L15255 960Q15423 1126 15628 1126Q15820 1126 15915 1015Q16011 905 16011 695L16011 0L15748 0L15748 663Q15747 796 15705 862Q15663 928 15554 928Q15469 928 15398 884Q15328 841 15296 775Q15277 697 15277 535L15277 0ZM16377 -283L16200 -283Q16257 -6 16294 232L16538 232L16535 183Q16470 -43 16377 -283ZM17615 1247L17615 217L17809 217Q18060 217 18191 348Q18322 480 18322 732Q18322 1002 18187 1124Q18052 1247 17780 1247L17615 1247ZM17793 0L17344 0L17344 1465L17768 1465Q17960 1465 18112 1421Q18264 1377 18373 1288Q18483 1200 18541 1060Q18600 921 18600 738Q18600 383 18386 191Q18172 0 17793 0ZM19340 -21Q19075 -21 18927 131Q18780 284 18780 553Q18780 815 18919 970Q19058 1125 19298 1126Q19525 1126 19650 984Q19776 842 19776 607Q19776 590 19775 552Q19775 514 19775 496L19044 496Q19048 342 19128 257Q19209 173 19350 173Q19530 173 19696 267L19733 81Q19568 -21 19340 -21ZM19049 661L19529 661Q19529 795 19468 867Q19407 939 19299 939Q19198 939 19128 869Q19059 799 19049 661ZM20374 -15Q20261 -15 20186 11Q20112 38 20069 96Q20026 154 20009 234Q19992 314 19992 433L19992 1504L20254 1521L20254 438Q20254 290 20289 237Q20324 185 20425 185Q20475 185 20552 196L20559 9Q20558 9 20534 4Q20511 -1 20489 -5Q20468 -8 20435 -12Q20402 -15 20374 -15ZM20957 0L20695 0L20695 1099L20957 1099L20957 0ZM20958 1259L20695 1259L20695 1483L20958 1483L20958 1259ZM21803 0L21538 0L21100 1099L21378 1099Q21394 1054 21479 819Q21565 585 21593 500Q21650 334 21675 249Q21675 250 21692 314Q21709 378 21724 434Q21740 491 21744 503Q21745 505 21835 779Q21926 1053 21943 1099L22219 1099L21803 0ZM22863 -21Q22598 -21 22450 131Q22303 284 22303 553Q22303 815 22442 970Q22581 1125 22821 1126Q23048 1126 23173 984Q23299 842 23299 607Q23299 590 23298 552Q23298 514 23298 496L22567 496Q22571 342 22651 257Q22732 173 22873 173Q23053 173 23219 267L23256 81Q23091 -21 22863 -21ZM22572 661L23052 661Q23052 795 22991 867Q22930 939 22822 939Q22721 939 22651 869Q22582 799 22572 661ZM23775 0L23513 0L23513 1099L23733 1099L23767 931Q23875 1104 24080 1104Q24123 1104 24150 1100L24146 881Q24106 887 24063 887Q23918 887 23846 810Q23775 733 23775 596L23775 0ZM24818 -21Q24553 -21 24405 131Q24258 284 24258 553Q24258 815 24397 970Q24536 1125 24776 1126Q25003 1126 25128 984Q25254 842 25254 607Q25254 590 25253 552Q25253 514 25253 496L24522 496Q24526 342 24606 257Q24687 173 24828 173Q25008 173 25174 267L25211 81Q25046 -21 24818 -21ZM24527 661L25007 661Q25007 795 24946 867Q24885 939 24777 939Q24676 939 24606 869Q24537 799 24527 661ZM25876 -21Q25661 -21 25538 137Q25415 295 25415 559Q25415 815 25537 970Q25660 1126 25875 1126Q26109 1126 26206 960Q26196 1058 26196 1149L26196 1504L26458 1521L26458 0L26231 0L26202 150Q26185 123 26170 103Q26156 84 26128 58Q26100 33 26067 17Q26035 2 25985 -10Q25936 -21 25876 -21ZM25938 178Q26202 178 26206 537Q26206 740 26138 833Q26070 926 25935 926Q25817 926 25746 831Q25676 737 25676 553Q25676 370 25746 274Q25817 178 25938 178ZM26852 449L26786 449L26701 1162L26701 1458L26942 1458L26942 1162L26852 449ZM26817 -18Q26752 -18 26707 27Q26662 72 26662 134Q26662 197 26707 243Q26752 289 26817 289Q26881 289 26925 243Q26970 197 26970 134Q26970 72 26925 27Q26881 -18 26817 -18Z" fill="#ffffff" style=""></path></g></g></g></svg>